<svg width="209" height="103" xmlns="http://www.w3.org/2000/svg" xmlns:xlink="http://www.w3.org/1999/xlink">
    <defs>
        <path d="M0 18.122v46.441a18.116 18.116 0 0 1 18.12 18.12h152.475c0-10.009 8.113-18.122 18.12-18.122V18.12c-10.006 0-18.117-8.114-18.117-18.121H18.12c0 10.008-8.113 18.122-18.12 18.122z" id="a"/>
    </defs>
    <g transform="translate(1.272 .99)" fill="none" fill-rule="evenodd">
        <rect stroke-opacity=".572" stroke="#80CBC0" stroke-width=".7" fill="#E0F2F0" fill-rule="nonzero" transform="rotate(180 103.38 50.364)" width="206.758" height="100.728" rx="5.488"/>
        <g transform="translate(9.08 9.093)">
            <mask id="b" fill="#fff">
                <use xlink:href="#a"/>
            </mask>
            <g fill-rule="nonzero">
                <use fill="#EDFAF9" style="mix-blend-mode:multiply" xlink:href="#a"/>
                <use stroke="#B2DFD8" stroke-width=".7" xlink:href="#a"/>
            </g>
            <g mask="url(#b)">
                <g transform="translate(25.92 30.907)">
                    <circle fill="#E0F2F0" cx="13" cy="13" r="13"/>
                    <path d="M16.369 18v-.058l-3.612-4.678c.038 0 .057-.01.057-.028.327 0 .88-.223 1.657-.669.876-.677 1.315-1.374 1.315-2.09h1.6c.037 0 .056-.019.056-.057v-.64c0-.033-.019-.052-.057-.056h-1.663l-.029-.206c-.199-.602-.478-1-.839-1.195v-.057h2.531c.038 0 .057-.019.057-.057v-.64c0-.033-.019-.052-.057-.056H10.66c-.033 0-.052.019-.057.057v.64c0 .037.019.056.057.056h1.223c.422 0 .888.135 1.4.406.37.27.612.62.725 1.052H10.66c-.033 0-.052.019-.057.057v.64c0 .037.019.056.057.056h3.377v.086c0 .08-.01.187-.029.32-.308 1.104-1.23 1.656-2.765 1.656h-.434v.028C13.587 16.19 14.982 18 14.997 18h1.372z" fill="#80CBC0" fill-rule="nonzero"/>
                </g>
            </g>
            <g mask="url(#b)">
                <g transform="translate(132.92 30.907)">
                    <circle fill="#E0F2F0" cx="13" cy="13" r="13"/>
                    <path d="M16.369 18v-.058l-3.612-4.678c.038 0 .057-.01.057-.028.327 0 .88-.223 1.657-.669.876-.677 1.315-1.374 1.315-2.09h1.6c.037 0 .056-.019.056-.057v-.64c0-.033-.019-.052-.057-.056h-1.663l-.029-.206c-.199-.602-.478-1-.839-1.195v-.057h2.531c.038 0 .057-.019.057-.057v-.64c0-.033-.019-.052-.057-.056H10.66c-.033 0-.052.019-.057.057v.64c0 .037.019.056.057.056h1.223c.422 0 .888.135 1.4.406.37.27.612.62.725 1.052H10.66c-.033 0-.052.019-.057.057v.64c0 .037.019.056.057.056h3.377v.086c0 .08-.01.187-.029.32-.308 1.104-1.23 1.656-2.765 1.656h-.434v.028C13.587 16.19 14.982 18 14.997 18h1.372z" fill="#80CBC0" fill-rule="nonzero"/>
                </g>
            </g>
            <g mask="url(#b)" fill-rule="nonzero">
                <g transform="translate(71.248 6.295)">
                    <path d="M38.315 49.88v1.763h-9.392V32.916l2.076-.278 3.96-.53v13.967c.001.814.52 1.533 1.282 1.771l.778.244c.77.24 1.296.967 1.296 1.79z" fill="#80CBC0"/>
                    <path d="M33.206 35.923c.47.45 1.138.61 1.753.42v-4.235l-3.96.53-1.074.144 3.281 3.141z" fill="#80CBC0"/>
                    <path d="m29.818 19.916-.265 10.325 3.654 3.499a1.781 1.781 0 0 0 2.713-.288l2.626-3.829a7.992 7.992 0 0 0 1.204-6.228l-1.643-7.468-8.289 3.989z" fill="#A4AED3"/>
                    <path d="M38.545 29.67 35.92 33.5a1.782 1.782 0 0 1-2.714.288l-3.652-3.498.264-10.326 7.035-3.385 1.255-.604.53 2.405 1.112 5.063a7.988 7.988 0 0 1-1.205 6.229z" fill="#80CBC0"/>
                    <path d="M45.335 13.02c-.065.115-.14.224-.225.324l-2.625 3.139a2.076 2.076 0 0 1-2.664.463l-1.713-1.019h-.001l-1.286.618-7.003 3.371-1.591-7.397 2.286-8.54 4.9-1.51a2.983 2.983 0 0 1 3.202.995l1.248 1.55c.132.165.285.312.455.438l.007.003a2.462 2.462 0 0 0 1.156.462l.44.052c1.178.141 2.092 1.12 2.175 2.332l.089 1.296.8.804c.686.69.83 1.766.35 2.618z" fill="#80CBC0"/>
                    <path d="M45.335 13.02c-.065.115-.14.224-.225.324l-2.625 3.139a2.076 2.076 0 0 1-2.664.463l-1.713-1.019h-.001l-1.729-1.984a2.04 2.04 0 0 1-.256-2.294l2.266-4.234c.38-.71.929-1.31 1.596-1.745l.334-.218.007.003.13.09a2.457 2.457 0 0 0 1.026.371l.44.053c1.178.141 2.092 1.12 2.175 2.332l.089 1.296.8.804c.686.69.83 1.766.35 2.618z" fill="#80CBC0"/>
                    <path d="m44.116 14.533-2.41-2.34a.88.88 0 0 0-1.22-.01l-.793.743a.926.926 0 0 0 .058 1.399l2.734 2.158 1.63-1.95zM7.786 49.88v1.763h9.393V32.916l-2.077-.278-3.96-.53v13.967c0 .814-.52 1.533-1.281 1.771l-.779.244c-.77.24-1.296.967-1.296 1.79z" fill="#80CBC0"/>
                    <path d="m16.283 19.916.265 10.325-3.653 3.499a1.781 1.781 0 0 1-2.714-.288l-2.625-3.829a7.992 7.992 0 0 1-1.204-6.228l1.642-7.468 8.29 3.989z" fill="#A4AED3"/>
                    <path d="m7.556 29.67 2.625 3.829a1.783 1.783 0 0 0 2.353.557c.128-.073.25-2.3.361-2.407l3.653-1.36-.265-10.326-7.035-3.385-1.254-.604-.53 2.405-1.112 5.063a7.988 7.988 0 0 0 1.204 6.229z" fill="#80CBC0"/>
                    <path d="M.766 13.02c.065.115.14.224.226.324l2.625 3.139a2.076 2.076 0 0 0 2.664.463l1.713-1.019 1.286.618 7.003 3.371-.497-7.397-.433-8.644-4.665-1.405a2.983 2.983 0 0 0-3.201.994l-1.248 1.55a2.47 2.47 0 0 1-.455.438l-.007.003a2.462 2.462 0 0 1-1.156.462l-.44.052C3.002 6.11 2.088 7.089 2.006 8.3l-.09 1.296-.799.804a2.197 2.197 0 0 0-.35 2.618z" fill="#80CBC0"/>
                    <path d="M.766 13.02c.065.115.14.224.226.324l2.625 3.139a2.076 2.076 0 0 0 2.664.463l1.713-1.019 1.73-1.984a2.04 2.04 0 0 0 .256-2.294L7.713 7.415A4.767 4.767 0 0 0 6.118 5.67l-.334-.218-.007.003a2.457 2.457 0 0 1-1.156.462l-.44.052C3.002 6.11 2.088 7.089 2.006 8.3l-.09 1.296-.799.804a2.197 2.197 0 0 0-.35 2.618z" fill="#80CBC0"/>
                    <path d="m1.986 14.533 2.41-2.34a.88.88 0 0 1 1.22-.01l.793.743a.926.926 0 0 1-.058 1.399l-2.735 2.158-1.63-1.95zM33.284 51.643H26.77l-.335-.798a1.929 1.929 0 0 1 .286-1.97l.697-.843c.31-.376.466-.86.433-1.352l-1.08-16.133 6.513-.997-1.087 17.165c-.03.47.113.935.4 1.303l.714.917c.403.518.513 1.215.288 1.837l-.315.871zm-13.897 0h-6.514l-.335-.798a1.929 1.929 0 0 1 .286-1.97l.697-.843c.31-.376.465-.86.432-1.352l-1.08-16.133 6.514-.997L18.3 46.715c-.03.47.112.935.4 1.303l.713.917c.404.518.513 1.215.289 1.837l-.315.871z" fill="#80CBC0"/>
                    <path d="m31.51 50.772-.315.87h-6.514l-.335-.797a1.93 1.93 0 0 1 .286-1.969l.698-.845c.31-.375.465-.86.432-1.35l-.51-7.615-.57-8.52 6.513-.996L31 32.638l-.061.971-2.173 1.32 1.978.863-.635 10.923c-.03.47.113.934.4 1.302l.714.918c.404.518.513 1.215.288 1.837zM21.79 50.772l-.314.87H14.96l-.335-.797a1.93 1.93 0 0 1 .287-1.969l.696-.845c.31-.375.466-.86.433-1.35l-.677-10.882 1.991-.691-2.186-1.459-.068-1.01-.14-2.092 6.514-.997-.603 9.526-.485 7.639c-.03.47.113.934.4 1.302l.714.918c.404.519.513 1.215.288 1.837z" fill="#80CBC0"/>
                    <rect fill="#B2DFD8" x="3.277" y="51.643" width="39.548" height="14.816" rx="3.547"/>
                    <path d="M7.176 66.46h31.75v.997c0 1.101-.873 1.994-1.95 1.994H9.126c-1.077 0-1.95-.893-1.95-1.994v-.997z" fill="#80CBC0"/>
                    <ellipse fill="#80CBC0" cx="23.05" cy="59.002" rx="6.785" ry="6.941"/>
                    <ellipse fill="#80CBC0" cx="23.05" cy="59.051" rx="1.435" ry="1.468"/>
                    <path d="M33.053 8.836v-4.61c0-.336-.03-.671-.088-1.002l-2.452.755-2.286 8.54 1.032 4.799c2.401-2.135 3.784-5.227 3.794-8.482zm-17.267 3.683-.434-8.644-2.213-.667c-.06.336-.09.677-.09 1.018v4.61a11.425 11.425 0 0 0 3.008 7.711l-.27-4.028z" fill="#80CBC0"/>
                    <path d="m31.31 33.444-6.308 2.801a4.8 4.8 0 0 1-3.903 0l-6.309-2.802a1.555 1.555 0 0 1-.885-1.107l-1.188-5.701a6.792 6.792 0 0 1 .354-3.936l3.922-9.664h12.115l3.916 9.632a6.792 6.792 0 0 1 .358 3.93l-1.187 5.737a1.555 1.555 0 0 1-.885 1.11z" fill="#A4AED3"/>
                    <path d="m31.31 33.444-6.308 2.801a4.8 4.8 0 0 1-3.903 0l-6.309-2.802a1.555 1.555 0 0 1-.885-1.107l-1.188-5.701a6.792 6.792 0 0 1 .354-3.936l3.922-9.664h12.115l3.916 9.632a6.792 6.792 0 0 1 .358 3.93l-1.187 5.737a1.555 1.555 0 0 1-.885 1.11z" fill="#80CBC0"/>
                    <path d="M27.546 16.173a5.773 5.773 0 0 1-3.545 1.223h-1.9c-1.281 0-2.527-.43-3.546-1.223-2.241-1.743-3.557-4.457-3.557-7.337v-4.61c0-2.059 1.631-3.727 3.643-3.727h8.819c2.012 0 3.643 1.668 3.643 3.727v4.61c0 2.88-1.316 5.594-3.557 7.337z" fill="#80CBC0"/>
                    <path d="M20.734 12.518c.055 1.278 1.083 2.285 2.333 2.286 1.25 0 2.278-1.008 2.332-2.285a4.3 4.3 0 0 0-4.665 0z" fill="#80CBC0"/>
                    <path d="m18.787 6.41.766-.612c.392-.313.94-.317 1.336-.01l.261.203c.3.232.38.66.182.987-.238.397-.223.901.04 1.282l.512.743c.168.243.405.428.68.53v1.43c-.33.517-.845.883-1.435 1.02a1.381 1.381 0 0 1-1.562-.768 1.515 1.515 0 0 1 .222-1.728.507.507 0 0 0 .11-.486.492.492 0 0 0-.357-.34.48.48 0 0 0-.466.147 2.534 2.534 0 0 0-.376 2.861c.32.653.908 1.124 1.604 1.285.247 1.296 1.317 2.258 2.604 2.344.051.002.102.004.153.004 1.348-.018 2.5-.996 2.767-2.348a2.356 2.356 0 0 0 1.58-1.284 2.557 2.557 0 0 0-.391-2.883.48.48 0 0 0-.688-.022.507.507 0 0 0-.025.703c.439.47.533 1.175.235 1.75a1.38 1.38 0 0 1-1.426.787 1.986 1.986 0 0 1-.141-.023 2.321 2.321 0 0 1-1.434-1.02v-1.43c.274-.101.511-.286.68-.53l.512-.742c.262-.38.278-.885.04-1.282a.757.757 0 0 1 .181-.987l.262-.203a1.076 1.076 0 0 1 1.335.01l.766.612a.48.48 0 0 0 .684-.086.506.506 0 0 0-.084-.7l-.766-.612a2.033 2.033 0 0 0-2.524-.018l-.262.203c-.7.54-.884 1.538-.423 2.302a.172.172 0 0 1-.006.186l-.512.743a.45.45 0 0 1-.37.196.45.45 0 0 1-.37-.196l-.512-.743a.172.172 0 0 1-.006-.186 1.766 1.766 0 0 0-.424-2.302l-.261-.203a2.034 2.034 0 0 0-2.525.018l-.766.613a.506.506 0 0 0-.083.7.48.48 0 0 0 .683.085zm4.264 5.524a3.162 3.162 0 0 0 1.735 1.027l.033.006a1.868 1.868 0 0 1-1.857 1.335 1.894 1.894 0 0 1-1.65-1.34h.004a3.163 3.163 0 0 0 1.735-1.028zm-11.845 16.82a1.738 1.738 0 0 0-.359-2.39.48.48 0 0 0-.68.108.506.506 0 0 0 .103.697c.31.233.376.678.15.995a.686.686 0 0 1-.973.153.48.48 0 0 0-.68.108.506.506 0 0 0 .103.696c.744.558 1.79.394 2.336-.367zm-1.05-8.946c.083.013.166.02.249.02a1.668 1.668 0 0 0 1.49-.944 1.743 1.743 0 0 0-.151-1.785.483.483 0 0 0-.841.097.508.508 0 0 0 .058.497.723.723 0 0 1-.145.995.686.686 0 0 1-.974-.147.483.483 0 0 0-.84.098.508.508 0 0 0 .057.496c.263.366.658.608 1.097.673zm.449 4.317a1.736 1.736 0 0 0-.337-2.393.48.48 0 0 0-.682.1.506.506 0 0 0 .098.699.72.72 0 0 1-.143 1.225.683.683 0 0 1-.691-.085.478.478 0 0 0-.484-.06.504.504 0 0 0-.1.858c.74.565 1.786.411 2.339-.344zm25.867 4.192c-.2.151-.464.18-.692.078a.72.72 0 0 1-.132-1.227.504.504 0 0 0-.091-.859.478.478 0 0 0-.485.056 1.73 1.73 0 0 0-.635 1.785 1.686 1.686 0 0 0 1.627 1.303c.355 0 .7-.116.985-.332a.506.506 0 0 0 .104-.697.48.48 0 0 0-.68-.107zm-13.421-2.816c.922-.001 1.67-.766 1.67-1.71a.493.493 0 0 0-.487-.498.493.493 0 0 0-.487.499.704.704 0 0 1-.696.712.704.704 0 0 1-.697-.712.493.493 0 0 0-.487-.5.493.493 0 0 0-.487.5c0 .943.748 1.708 1.67 1.71zm14.018-1.83a.686.686 0 0 1-.975-.143.723.723 0 0 1 .14-.997.504.504 0 0 0-.1-.858.478.478 0 0 0-.483.06 1.727 1.727 0 0 0-.658 1.57c.07.607.452 1.129 1 1.37a1.64 1.64 0 0 0 1.66-.203.504.504 0 0 0-.1-.858.478.478 0 0 0-.484.06zm3.812-5.933c.76 0 1.481-.34 1.974-.93l2.625-3.14a2.708 2.708 0 0 0-.154-3.622l-.668-.672-.076-1.107c-.1-1.45-1.193-2.623-2.604-2.793l-.44-.053a1.959 1.959 0 0 1-1.299-.723l-1.248-1.55a3.457 3.457 0 0 0-3.718-1.155L31.46 3.171c-.472-1.865-2.117-3.169-4-3.171h-8.818c-1.872.003-3.508 1.29-3.992 3.14l-3.822-1.147A3.457 3.457 0 0 0 7.11 3.148l-1.247 1.55a1.96 1.96 0 0 1-1.299.723l-.44.053c-1.411.17-2.504 1.343-2.605 2.792l-.076 1.108-.667.671A2.708 2.708 0 0 0 .62 13.67l2.625 3.138a2.554 2.554 0 0 0 3.28.57l.747-.444-1.397 6.351a8.509 8.509 0 0 0 1.281 6.625l2.625 3.83c.224.324.524.585.873.758V46.06a1.364 1.364 0 0 1-.953 1.314l-.762.24c-.977.3-1.645 1.223-1.642 2.267v1.264h-.521c-2.201.002-3.985 1.827-3.988 4.079v7.655c.003 2.216 1.734 4.026 3.9 4.077v.5c.001 1.377 1.091 2.492 2.436 2.494h27.851c1.345-.002 2.435-1.117 2.437-2.493v-.501c2.166-.051 3.896-1.86 3.899-4.077v-7.655c-.002-2.252-1.786-4.077-3.987-4.08h-.522v-1.263c.004-1.044-.664-1.967-1.641-2.268l-.779-.243a1.344 1.344 0 0 1-.936-1.296V34.497c.349-.174.649-.434.872-.759l2.625-3.829a8.51 8.51 0 0 0 1.281-6.624l-1.396-6.352.747.444c.396.237.846.361 1.305.361zm1.535-1.94-2.367-1.868a.421.421 0 0 1-.027-.637l.793-.743a.402.402 0 0 1 .555.005l2.074 2.014-1.028 1.23zM15.486 4.227c.002-1.782 1.413-3.227 3.156-3.229h8.818c1.742.002 3.154 1.447 3.156 3.229v4.61c-.007 2.722-1.25 5.287-3.364 6.94A5.323 5.323 0 0 1 24 16.898h-1.9a5.323 5.323 0 0 1-3.251-1.12c-2.114-1.654-3.357-4.219-3.364-6.941v-4.61zm14.64 44.102.715.918c.296.382.376.895.212 1.353l-.197.546h-5.854l-.208-.496a1.414 1.414 0 0 1 .211-1.451l.696-.844c.394-.475.59-1.088.547-1.708l-.677-10.11 4.829-2.145-.778 12.293c-.038.593.142 1.18.505 1.644zm-13.598-1.682-.82-12.252 4.836 2.149-.642 10.14c-.038.594.142 1.18.505 1.645l.714.918c.296.382.376.895.212 1.353l-.197.546h-5.854l-.208-.496a1.414 1.414 0 0 1 .211-1.451l.696-.844c.394-.475.59-1.088.547-1.708zm7.37 4.397.043.102h-1.766l.073-.201a2.45 2.45 0 0 0-.365-2.32l-.714-.918a1.414 1.414 0 0 1-.294-.958l.622-9.825a5.274 5.274 0 0 0 3.123-.004l.656 9.795c.025.362-.09.72-.32.996l-.695.844a2.424 2.424 0 0 0-.363 2.489zm-1.335 1.119v4.887a1.965 1.965 0 0 0-.27.089l-2.805-3.953a6.603 6.603 0 0 1 3.075-1.023zm-1.058 5.562c-.06.074-.115.153-.164.234l-4.545-1.51a6.935 6.935 0 0 1 1.904-2.676l2.805 3.952zm-.466 1.183c-.004.048-.007.096-.007.144 0 .05.003.097.007.145l-4.545 1.51a7.043 7.043 0 0 1 0-3.31l4.545 1.51zm.302 1.237c.05.082.104.16.164.234L18.7 64.33a6.935 6.935 0 0 1-1.904-2.675l4.545-1.51zm.953.821c.087.036.178.066.27.089v4.887a6.603 6.603 0 0 1-3.076-1.023l2.806-3.953zm-.288-1.914c0-.59.468-1.068 1.045-1.068s1.044.478 1.044 1.068c0 .59-.467 1.069-1.044 1.069a1.058 1.058 0 0 1-1.045-1.069zm1.532 2.003c.092-.023.182-.053.27-.089l2.806 3.953a6.603 6.603 0 0 1-3.076 1.023v-4.887zm1.058-.676c.06-.074.115-.152.165-.234l4.544 1.511a6.935 6.935 0 0 1-1.904 2.675l-2.805-3.952zm.467-1.182c.003-.048.007-.096.007-.145 0-.048-.004-.096-.007-.144l4.544-1.511a7.043 7.043 0 0 1 0 3.31l-4.544-1.51zm-.302-1.238a2.074 2.074 0 0 0-.165-.234l2.805-3.952a6.935 6.935 0 0 1 1.904 2.676l-4.544 1.51zm-.953-.82a1.965 1.965 0 0 0-.27-.089v-4.887c1.092.08 2.147.43 3.076 1.023l-2.806 3.953zm1-21.35a4.34 4.34 0 0 1-3.515 0l-6.309-2.802a1.06 1.06 0 0 1-.603-.753l-1.187-5.702a6.26 6.26 0 0 1 .329-3.642l3.168-7.865c.462.576.99 1.095 1.569 1.546a6.288 6.288 0 0 0 3.84 1.324H24a6.288 6.288 0 0 0 3.841-1.324 9.51 9.51 0 0 0 1.583-1.563l3.15 7.852a6.245 6.245 0 0 1 .331 3.634l-1.186 5.74c-.07.336-.295.617-.603.753l-6.307 2.802zM2.658 14.568l2.074-2.013a.402.402 0 0 1 .556-.005l.792.744a.421.421 0 0 1-.026.636L3.686 15.8l-1.029-1.23zm3.378 1.947c-.51.304-1.141.3-1.647-.011l2.26-1.784c.323-.255.52-.643.537-1.06a1.43 1.43 0 0 0-.447-1.102l-.792-.743a1.364 1.364 0 0 0-1.886.017L2.022 13.81l-.66-.79a1.691 1.691 0 0 1 .097-2.263l.799-.803a.503.503 0 0 0 .145-.321l.089-1.297c.067-.972.8-1.757 1.745-1.872l.44-.052a2.903 2.903 0 0 0 1.106-.369l.072.048c.598.39 1.09.928 1.43 1.564l2.266 4.234c.298.558.22 1.247-.192 1.722l-1.676 1.924-1.648.98zm4.545 16.65-2.625-3.829a7.492 7.492 0 0 1-1.128-5.833l1.614-7.339 1.645-1.89c.687-.79.815-1.936.32-2.864L8.14 7.176a5.285 5.285 0 0 0-1.57-1.793l.045-.051 1.248-1.55a2.498 2.498 0 0 1 2.688-.833l3.962 1.188-.002.089v4.61a9.918 9.918 0 0 0 1.507 5.24l-3.396 8.432a7.273 7.273 0 0 0-.382 4.231l1.188 5.702c.006.028.016.055.023.083l-.889.852a1.302 1.302 0 0 1-1.982-.21zM8.273 49.882a1.364 1.364 0 0 1 .952-1.314l.763-.24c.977-.3 1.645-1.223 1.641-2.267V34.735l.032.002c.582 0 1.142-.226 1.567-.633l.71-.68c.185.203.41.365.658.477l.104.046.856 12.767c.025.362-.09.72-.32.996l-.695.844a2.424 2.424 0 0 0-.363 2.489l.043.102H8.273V49.88zm-1.496 16.08c-1.663-.002-3.01-1.38-3.013-3.082v-7.655c.002-1.701 1.35-3.08 3.013-3.082H19.3c-.259.148-.51.311-.75.488-.014.009-.028.015-.041.024l-.029.027a7.932 7.932 0 0 0-2.776 3.92l-.003.007-.001.005a8.058 8.058 0 0 0 0 4.877l.001.005.003.008a7.932 7.932 0 0 0 2.776 3.92c.01.008.018.017.029.025a.482.482 0 0 0 .051.032c.238.175.485.335.74.48H6.777zm31.661 1.496c0 .826-.655 1.495-1.462 1.496H9.126c-.808-.001-1.462-.67-1.463-1.496v-.499h30.775v.499zm.887-15.315c1.663.002 3.01 1.38 3.012 3.082v7.655c-.002 1.701-1.35 3.08-3.012 3.082H26.8c.256-.146.503-.306.74-.48a.482.482 0 0 0 .052-.033l.028-.026a7.932 7.932 0 0 0 2.776-3.92c.001-.002.003-.004.003-.007l.001-.005a8.058 8.058 0 0 0 0-4.877v-.005l-.003-.006a7.932 7.932 0 0 0-2.777-3.921c-.01-.009-.018-.019-.028-.027-.013-.009-.027-.015-.04-.023a7.757 7.757 0 0 0-.752-.49h12.524zm-3.227-3.819.779.244c.566.174.953.709.951 1.314v1.264h-5.933l.073-.2a2.45 2.45 0 0 0-.365-2.32l-.714-.919a1.414 1.414 0 0 1-.295-.958l.811-12.803.098-.044c.25-.111.474-.274.66-.477l.71.68c.425.407.986.633 1.567.633l.032-.002v11.34c-.004 1.035.657 1.95 1.626 2.248zm3.176-24.82a7.492 7.492 0 0 1-1.128 5.833l-2.624 3.83a1.302 1.302 0 0 1-1.982.21l-.89-.853c.007-.028.016-.056.022-.085L33.86 26.7a7.259 7.259 0 0 0-.384-4.222l-3.379-8.422a9.918 9.918 0 0 0 1.495-5.22v-4.61l-.002-.053 3.965-1.225a2.497 2.497 0 0 1 2.685.834l1.248 1.55c.014.018.03.033.045.05a5.285 5.285 0 0 0-1.571 1.794l-2.266 4.234a2.551 2.551 0 0 0 .32 2.865l1.646 1.89 1.613 7.339zm-.856-7.968-1.675-1.924a1.534 1.534 0 0 1-.193-1.722l2.266-4.234a4.283 4.283 0 0 1 1.43-1.565l.072-.047c.341.197.717.322 1.106.369l.44.052c.946.115 1.679.9 1.746 1.872l.089 1.297c.008.121.06.235.144.32l.8.804c.607.612.649 1.6.096 2.263l-.66.79-2.038-1.979a1.364 1.364 0 0 0-1.885-.016l-.793.743a1.43 1.43 0 0 0-.446 1.102c.017.417.213.805.536 1.06l2.26 1.784a1.588 1.588 0 0 1-1.647.011l-1.648-.98zm3.341-5.489a.48.48 0 0 0 .34-.142l.602-.6a.506.506 0 0 0 .132-.48.493.493 0 0 0-.34-.357.48.48 0 0 0-.473.123l-.601.6a.507.507 0 0 0-.111.546c.075.187.253.31.451.31zm-6.341 9.781a1.651 1.651 0 0 0 1.346-.692.508.508 0 0 0 .057-.496.483.483 0 0 0-.84-.097.69.69 0 0 1-1.2-.141.726.726 0 0 1 .081-.708.508.508 0 0 0 .058-.497.483.483 0 0 0-.84-.097 1.743 1.743 0 0 0-.152 1.785c.283.577.86.941 1.49.943zM21.31 27.282a.493.493 0 0 0-.487.499.704.704 0 0 1-.697.712.704.704 0 0 1-.696-.712.493.493 0 0 0-.487-.5.493.493 0 0 0-.488.5c0 .944.749 1.71 1.671 1.71.923 0 1.671-.766 1.671-1.71a.493.493 0 0 0-.487-.5zm-1.462-3.49a.493.493 0 0 0-.487-.5.493.493 0 0 0-.488.5.704.704 0 0 1-.696.712.704.704 0 0 1-.696-.712.493.493 0 0 0-.488-.5.493.493 0 0 0-.487.5c0 .944.748 1.71 1.67 1.71.924 0 1.672-.766 1.672-1.71zm4.386 7.479a.493.493 0 0 0-.487.499.704.704 0 0 1-.696.712.704.704 0 0 1-.697-.712.493.493 0 0 0-.487-.5.493.493 0 0 0-.487.5c0 .944.748 1.71 1.67 1.71.924 0 1.672-.766 1.672-1.71a.493.493 0 0 0-.488-.5zM4.081 8.59a.48.48 0 0 0-.472-.124.493.493 0 0 0-.34.357.506.506 0 0 0 .132.48l.6.6a.48.48 0 0 0 .473.124.493.493 0 0 0 .34-.357.506.506 0 0 0-.131-.48l-.602-.6zM27.16 27.28a.493.493 0 0 0-.488.5.704.704 0 0 1-.696.712.704.704 0 0 1-.696-.712.493.493 0 0 0-.488-.5.493.493 0 0 0-.487.5c0 .944.748 1.71 1.671 1.71s1.671-.766 1.671-1.71a.493.493 0 0 0-.487-.5zm1.95-3.988a.493.493 0 0 0-.488.499.704.704 0 0 1-.696.712.704.704 0 0 1-.697-.712.493.493 0 0 0-.487-.5.493.493 0 0 0-.487.5c0 .944.748 1.71 1.67 1.71.923 0 1.672-.766 1.672-1.71a.493.493 0 0 0-.488-.5z" fill="#EDFAF9"/>
                </g>
            </g>
        </g>
    </g>
</svg>
